<svg width="24" height="24" viewBox="0 0 24 24" fill="none" xmlns="http://www.w3.org/2000/svg">
<path d="M7.288 13.713C7.096 13.521 7 13.2833 7 13C7 12.7167 7.096 12.4793 7.288 12.288C7.48 12.0967 7.71733 12.0007 8 12C8.28267 11.9993 8.52033 12.0953 8.713 12.288C8.90567 12.4807 9.00133 12.718 9 13C8.99867 13.282 8.90267 13.5197 8.712 13.713C8.52133 13.9063 8.284 14.002 8 14C7.716 13.998 7.47867 13.902 7.288 13.712M11.288 13.712C11.096 13.5213 11 13.284 11 13C11 12.716 11.096 12.4787 11.288 12.288C11.48 12.0973 11.7173 12.0013 12 12C12.2827 11.9987 12.5203 12.0947 12.713 12.288C12.9057 12.4813 13.0013 12.7187 13 13C12.9987 13.2813 12.9027 13.519 12.712 13.713C12.5213 13.907 12.284 14.0027 12 14C11.716 13.9973 11.4787 13.9013 11.288 13.712ZM15.288 13.712C15.096 13.5213 15 13.284 15 13C15 12.716 15.096 12.4787 15.288 12.288C15.48 12.0973 15.7173 12.0013 16 12C16.2827 11.9987 16.5203 12.0947 16.713 12.288C16.9057 12.4813 17.0013 12.7187 17 13C16.9987 13.2813 16.9027 13.519 16.712 13.713C16.5213 13.907 16.284 14.0027 16 14C15.716 13.9973 15.4787 13.9013 15.288 13.712ZM5 22C4.45 22 3.97933 21.8043 3.588 21.413C3.19667 21.0217 3.00067 20.5507 3 20V6C3 5.45 3.196 4.97933 3.588 4.588C3.98 4.19667 4.45067 4.00067 5 4H6V2H8V4H16V2H18V4H19C19.55 4 20.021 4.196 20.413 4.588C20.805 4.98 21.0007 5.45067 21 6V20C21 20.55 20.8043 21.021 20.413 21.413C20.0217 21.805 19.5507 22.0007 19 22H5ZM5 20H19V10H5V20Z" fill="#032A56"/>
</svg>
